G04 Layer: TopSilkscreenLayer*
G04 EasyEDA v6.5.50, 2025-06-16 12:03:04*
G04 55e65c3ac0eb4ad98c6e674942cef6fe,3f078cb1506742e7acfa9f53f525b8a4,10*
G04 Gerber Generator version 0.2*
G04 Scale: 100 percent, Rotated: No, Reflected: No *
G04 Dimensions in millimeters *
G04 leading zeros omitted , absolute positions ,4 integer and 5 decimal *
%FSLAX45Y45*%
%MOMM*%

%ADD10C,0.2032*%
%ADD11C,0.1524*%
%ADD12C,0.2540*%
%ADD13C,0.0199*%

%LPD*%
G36*
X2532684Y5347360D02*
G01*
X1550212Y5347309D01*
X1544320Y5342890D01*
X1541780Y5342890D01*
X1541780Y4870907D01*
X1555191Y4870907D01*
X1555191Y5323789D01*
X1555699Y5326938D01*
X1560169Y5328666D01*
X1565757Y5329326D01*
X2521712Y5329224D01*
X2527401Y5326989D01*
X2528417Y5321350D01*
X2528417Y4873345D01*
X2527401Y4867706D01*
X2521254Y4865471D01*
X1561896Y4865471D01*
X1555750Y4867706D01*
X1555191Y4870907D01*
X1541780Y4870907D01*
X1541780Y4852314D01*
X1544726Y4852314D01*
X1545894Y4850688D01*
X1550416Y4847336D01*
X2532684Y4847336D01*
X2537968Y4850892D01*
X2540508Y4854956D01*
X2541778Y4859985D01*
X2541778Y5334711D01*
X2540508Y5339740D01*
X2537968Y5343804D01*
G37*
G36*
X1650441Y5299506D02*
G01*
X1643532Y5298694D01*
X1640179Y5297728D01*
X1637233Y5294426D01*
X1634642Y5288534D01*
X1634642Y5286451D01*
X1632102Y5275427D01*
X1629003Y5269585D01*
X1624533Y5259120D01*
X1620621Y5254853D01*
X1612442Y5247030D01*
X1605483Y5244084D01*
X1596440Y5241340D01*
X1589532Y5238902D01*
X1586230Y5235295D01*
X1584502Y5232044D01*
X1583283Y5224322D01*
X1583283Y4976825D01*
X1597964Y4976825D01*
X1597964Y5217972D01*
X1600758Y5224322D01*
X1606804Y5225897D01*
X1611579Y5228691D01*
X1612849Y5229910D01*
X1618894Y5232196D01*
X1621485Y5233670D01*
X1624634Y5236768D01*
X1629562Y5240731D01*
X1635302Y5248706D01*
X1638249Y5252110D01*
X1639925Y5256479D01*
X1644396Y5264099D01*
X1646732Y5270550D01*
X1648002Y5276037D01*
X1651152Y5281726D01*
X2431948Y5281726D01*
X2435047Y5276545D01*
X2437739Y5267096D01*
X2440838Y5260594D01*
X2442921Y5257393D01*
X2444699Y5252821D01*
X2449118Y5247081D01*
X2453284Y5240934D01*
X2458618Y5236565D01*
X2461666Y5233670D01*
X2464257Y5232196D01*
X2470099Y5229961D01*
X2476144Y5225948D01*
X2482392Y5224322D01*
X2485186Y5217972D01*
X2485186Y4976723D01*
X2482392Y4970373D01*
X2476144Y4968748D01*
X2470099Y4964734D01*
X2464257Y4962499D01*
X2461666Y4961026D01*
X2458618Y4958130D01*
X2453386Y4953812D01*
X2447899Y4945989D01*
X2444953Y4942636D01*
X2442413Y4936540D01*
X2438146Y4928768D01*
X2434640Y4917592D01*
X2432100Y4912969D01*
X1650898Y4913223D01*
X1648002Y4918659D01*
X1646732Y4924145D01*
X1644446Y4930546D01*
X1639011Y4939944D01*
X1639011Y4941214D01*
X1634439Y4947005D01*
X1629613Y4953965D01*
X1624634Y4957927D01*
X1621485Y4961026D01*
X1619605Y4962144D01*
X1613306Y4964785D01*
X1609852Y4967478D01*
X1607058Y4969103D01*
X1600504Y4970627D01*
X1597964Y4976825D01*
X1583283Y4976825D01*
X1583283Y4970373D01*
X1584502Y4962652D01*
X1586230Y4959451D01*
X1589532Y4955794D01*
X1596440Y4953355D01*
X1605483Y4950612D01*
X1612595Y4947615D01*
X1620012Y4940300D01*
X1622501Y4938776D01*
X1624787Y4935372D01*
X1628698Y4925212D01*
X1632000Y4919624D01*
X1634642Y4908854D01*
X1634693Y4906264D01*
X1636725Y4901285D01*
X1639824Y4897170D01*
X1646123Y4895291D01*
X2437028Y4895291D01*
X2443327Y4897170D01*
X2446426Y4901285D01*
X2448458Y4906264D01*
X2448509Y4908092D01*
X2451709Y4919675D01*
X2454198Y4924399D01*
X2458313Y4935270D01*
X2460244Y4938318D01*
X2464663Y4941620D01*
X2470302Y4947412D01*
X2475941Y4950358D01*
X2486304Y4953203D01*
X2493873Y4955895D01*
X2498140Y4961229D01*
X2499664Y4966360D01*
X2499918Y5222849D01*
X2498953Y5230774D01*
X2497328Y5234787D01*
X2493619Y5238902D01*
X2486710Y5241391D01*
X2476449Y5244033D01*
X2471013Y5246624D01*
X2464663Y5253024D01*
X2460244Y5256377D01*
X2458364Y5259425D01*
X2453843Y5271058D01*
X2451658Y5275021D01*
X2447594Y5291124D01*
X2443683Y5297119D01*
X2440076Y5298186D01*
X2437028Y5299405D01*
G37*
G36*
X2037892Y5251297D02*
G01*
X2034032Y5250891D01*
X2021484Y5248859D01*
X2012442Y5246573D01*
X2003348Y5244947D01*
X1996948Y5242915D01*
X1990547Y5239512D01*
X1985619Y5236159D01*
X1979777Y5233924D01*
X1972259Y5227726D01*
X1966264Y5224576D01*
X1961032Y5220208D01*
X1957984Y5216855D01*
X1952396Y5211775D01*
X1940255Y5197500D01*
X1937105Y5192014D01*
X1934362Y5189067D01*
X1930654Y5183073D01*
X1927961Y5176570D01*
X1924456Y5171694D01*
X1922678Y5167680D01*
X1920646Y5160924D01*
X1917598Y5155082D01*
X1915007Y5148580D01*
X1913331Y5141315D01*
X1911908Y5130901D01*
X1909927Y5120436D01*
X1907946Y5105552D01*
X1907997Y5088636D01*
X1908257Y5086654D01*
X1923897Y5086654D01*
X1923897Y5108041D01*
X1925015Y5124450D01*
X1926234Y5134864D01*
X1933600Y5152847D01*
X1936546Y5161991D01*
X1939696Y5166410D01*
X1942998Y5174640D01*
X1950720Y5184140D01*
X1954428Y5191048D01*
X1957781Y5193741D01*
X1960168Y5197602D01*
X1966163Y5201920D01*
X1974392Y5210759D01*
X1981758Y5214823D01*
X1985822Y5218480D01*
X1996439Y5222646D01*
X2008632Y5230012D01*
X2021941Y5231942D01*
X2065528Y5231688D01*
X2074214Y5230063D01*
X2088032Y5222087D01*
X2096820Y5219242D01*
X2099665Y5216956D01*
X2102256Y5214213D01*
X2108758Y5210759D01*
X2117039Y5201920D01*
X2122982Y5197602D01*
X2125370Y5193741D01*
X2128723Y5191048D01*
X2132431Y5184140D01*
X2140153Y5174640D01*
X2142236Y5169154D01*
X2143658Y5166207D01*
X2146655Y5161889D01*
X2149551Y5152847D01*
X2156917Y5134864D01*
X2158136Y5124450D01*
X2159254Y5108041D01*
X2159254Y5086654D01*
X2158136Y5070246D01*
X2156917Y5059832D01*
X2149551Y5041849D01*
X2146706Y5032908D01*
X2143201Y5027828D01*
X2139950Y5018887D01*
X2132482Y5010607D01*
X2128621Y5003393D01*
X2127199Y5002885D01*
X2123338Y4998161D01*
X2122982Y4997145D01*
X2116582Y4992370D01*
X2109825Y4984191D01*
X2102002Y4980432D01*
X2097582Y4976418D01*
X2089810Y4973066D01*
X2074164Y4964633D01*
X2064664Y4963210D01*
X2048256Y4962144D01*
X2031847Y4962144D01*
X2018030Y4963210D01*
X2008987Y4964633D01*
X1993341Y4973066D01*
X1985467Y4976418D01*
X1981758Y4979924D01*
X1979168Y4981549D01*
X1974392Y4983937D01*
X1966163Y4992827D01*
X1960168Y4997094D01*
X1957781Y5000955D01*
X1954428Y5003647D01*
X1950669Y5010607D01*
X1943201Y5018887D01*
X1940001Y5027777D01*
X1936292Y5033264D01*
X1932686Y5045405D01*
X1926285Y5059375D01*
X1925015Y5070246D01*
X1923897Y5086654D01*
X1908257Y5086654D01*
X1909825Y5074716D01*
X1911959Y5063286D01*
X1913737Y5051044D01*
X1915871Y5043627D01*
X1918563Y5037480D01*
X1920748Y5033568D01*
X1922780Y5026609D01*
X1925066Y5022037D01*
X1927860Y5017566D01*
X1929638Y5012893D01*
X1932330Y5008422D01*
X1938121Y5001056D01*
X1941474Y4995468D01*
X1954530Y4980736D01*
X1959305Y4977180D01*
X1961896Y4973980D01*
X1967179Y4969611D01*
X1972259Y4966970D01*
X1979828Y4960721D01*
X1986076Y4958435D01*
X1990750Y4955032D01*
X1996948Y4951780D01*
X2003348Y4949748D01*
X2012442Y4948123D01*
X2021738Y4945786D01*
X2034895Y4943602D01*
X2048256Y4943602D01*
X2061413Y4945786D01*
X2070760Y4948123D01*
X2079802Y4949748D01*
X2086102Y4951730D01*
X2091740Y4954676D01*
X2096820Y4958232D01*
X2102764Y4960569D01*
X2105710Y4962245D01*
X2110740Y4966716D01*
X2116531Y4969967D01*
X2120849Y4973726D01*
X2124710Y4977892D01*
X2128621Y4980787D01*
X2141677Y4995468D01*
X2145030Y5001056D01*
X2150059Y5007559D01*
X2152497Y5011674D01*
X2155088Y5017770D01*
X2159000Y5023561D01*
X2160473Y5026964D01*
X2162505Y5033772D01*
X2165604Y5039614D01*
X2168144Y5046116D01*
X2169820Y5053380D01*
X2171242Y5063794D01*
X2173325Y5074513D01*
X2175205Y5089652D01*
X2175205Y5105044D01*
X2173325Y5120182D01*
X2171242Y5130901D01*
X2169820Y5141315D01*
X2168144Y5148580D01*
X2165604Y5155082D01*
X2162505Y5160924D01*
X2160473Y5167731D01*
X2159000Y5171135D01*
X2155088Y5176926D01*
X2152497Y5183073D01*
X2148789Y5189067D01*
X2146046Y5192014D01*
X2142896Y5197500D01*
X2130094Y5212486D01*
X2125268Y5216398D01*
X2119985Y5221884D01*
X2115870Y5225135D01*
X2110892Y5227726D01*
X2103374Y5233924D01*
X2097532Y5236159D01*
X2090166Y5240985D01*
X2083714Y5243880D01*
X2072030Y5246878D01*
X2049221Y5250942D01*
G37*
G36*
X2038756Y5227472D02*
G01*
X2033168Y5225491D01*
X2027377Y5220563D01*
X2025599Y5217312D01*
X2024329Y5203748D01*
X2022043Y5197246D01*
X2020874Y5197246D01*
X2013407Y5194046D01*
X2008276Y5188915D01*
X2003348Y5185867D01*
X1999691Y5182260D01*
X1995373Y5175148D01*
X1992375Y5172405D01*
X1990242Y5168188D01*
X1988362Y5161229D01*
X1985873Y5154066D01*
X1983536Y5143296D01*
X1983536Y5139334D01*
X1999030Y5139334D01*
X2000504Y5149291D01*
X2002383Y5158740D01*
X2003958Y5162296D01*
X2008225Y5167325D01*
X2010562Y5171948D01*
X2015439Y5174792D01*
X2020773Y5180279D01*
X2027529Y5181904D01*
X2033168Y5183987D01*
X2037994Y5189575D01*
X2040229Y5197500D01*
X2041296Y5203952D01*
X2044293Y5210911D01*
X2045868Y5206949D01*
X2046681Y5201970D01*
X2047595Y5193741D01*
X2049424Y5189067D01*
X2052167Y5185714D01*
X2055317Y5183378D01*
X2066848Y5181244D01*
X2072132Y5179364D01*
X2075484Y5176266D01*
X2078075Y5174792D01*
X2080869Y5171694D01*
X2080310Y5165191D01*
X2078126Y5161635D01*
X2072589Y5159806D01*
X2070760Y5161178D01*
X2061210Y5166766D01*
X2047239Y5168036D01*
X2035302Y5167579D01*
X2028952Y5164988D01*
X2025548Y5162397D01*
X2022449Y5156758D01*
X2019249Y5152694D01*
X2017420Y5146294D01*
X2016861Y5139690D01*
X2018792Y5132882D01*
X2024329Y5124246D01*
X2028850Y5120792D01*
X2031949Y5117338D01*
X2036165Y5114848D01*
X2040585Y5113324D01*
X2043531Y5111648D01*
X2049881Y5107178D01*
X2053894Y5105247D01*
X2061210Y5103215D01*
X2063800Y5101691D01*
X2068118Y5097221D01*
X2073351Y5094274D01*
X2075434Y5091074D01*
X2078837Y5088128D01*
X2082495Y5082184D01*
X2086406Y5073751D01*
X2089200Y5064302D01*
X2089657Y5057597D01*
X2088591Y5049875D01*
X2086559Y5041950D01*
X2084527Y5036464D01*
X2077669Y5024018D01*
X2069490Y5017871D01*
X2067204Y5015280D01*
X2062784Y5013350D01*
X2056485Y5012283D01*
X2052929Y5010505D01*
X2049780Y5006848D01*
X2048052Y5002885D01*
X2046224Y4990236D01*
X2044344Y4985308D01*
X2041956Y4990033D01*
X2039772Y4998669D01*
X2037384Y5004663D01*
X2034032Y5008524D01*
X2028189Y5011724D01*
X2023211Y5012385D01*
X2015439Y5013960D01*
X2011121Y5015890D01*
X2008327Y5018379D01*
X2003552Y5020818D01*
X2000199Y5023256D01*
X1999437Y5029504D01*
X2001774Y5035956D01*
X2004822Y5038547D01*
X2011121Y5035956D01*
X2015896Y5031841D01*
X2021941Y5028387D01*
X2028393Y5027320D01*
X2042210Y5026202D01*
X2048713Y5026812D01*
X2055622Y5028387D01*
X2057196Y5029352D01*
X2066391Y5039258D01*
X2068220Y5042712D01*
X2069439Y5050383D01*
X2069439Y5063286D01*
X2067306Y5068265D01*
X2058060Y5078323D01*
X2052472Y5081371D01*
X2047849Y5085435D01*
X2040940Y5089398D01*
X2034895Y5090972D01*
X2029510Y5092954D01*
X2026666Y5095341D01*
X2018538Y5099862D01*
X2014118Y5104536D01*
X2006955Y5111496D01*
X2004517Y5113274D01*
X2002586Y5118455D01*
X1999538Y5131917D01*
X1999030Y5139334D01*
X1983536Y5139334D01*
X1983536Y5133390D01*
X1985060Y5127396D01*
X1988362Y5117490D01*
X1989277Y5112410D01*
X1991106Y5106771D01*
X1995627Y5101082D01*
X1997557Y5097373D01*
X2001215Y5094122D01*
X2002332Y5092395D01*
X2008479Y5086705D01*
X2016556Y5082997D01*
X2020519Y5078984D01*
X2024938Y5077104D01*
X2032152Y5074869D01*
X2036622Y5071364D01*
X2050440Y5063693D01*
X2051862Y5061813D01*
X2055672Y5055209D01*
X2052523Y5049164D01*
X2050948Y5047183D01*
X2044598Y5042154D01*
X2036927Y5042154D01*
X2027123Y5045557D01*
X2022297Y5047894D01*
X2018030Y5050993D01*
X2011680Y5054854D01*
X2008987Y5058156D01*
X2005279Y5060645D01*
X1998573Y5058968D01*
X1990750Y5049875D01*
X1988261Y5042916D01*
X1983739Y5037226D01*
X1981047Y5030927D01*
X1980184Y5023662D01*
X1980641Y5021427D01*
X1986076Y5014518D01*
X1991664Y5009134D01*
X1993849Y5007559D01*
X1998014Y5005781D01*
X2002485Y5002326D01*
X2006447Y4999990D01*
X2011578Y4998516D01*
X2018030Y4997399D01*
X2021941Y4994503D01*
X2023516Y4991455D01*
X2025040Y4983784D01*
X2025599Y4977384D01*
X2027478Y4974183D01*
X2032812Y4970068D01*
X2038350Y4968036D01*
X2051304Y4968544D01*
X2055774Y4969662D01*
X2059228Y4974031D01*
X2060600Y4977688D01*
X2061413Y4985766D01*
X2062276Y4990846D01*
X2065426Y4996992D01*
X2075180Y5001514D01*
X2076754Y5003495D01*
X2084628Y5008829D01*
X2092909Y5018836D01*
X2094839Y5023561D01*
X2098548Y5028996D01*
X2101545Y5035956D01*
X2102510Y5045405D01*
X2103221Y5061813D01*
X2102459Y5072735D01*
X2101189Y5079695D01*
X2098802Y5085130D01*
X2094839Y5090160D01*
X2091689Y5097119D01*
X2088184Y5099913D01*
X2084832Y5105146D01*
X2081530Y5108194D01*
X2073910Y5112207D01*
X2069236Y5117134D01*
X2062530Y5120182D01*
X2054301Y5125008D01*
X2050440Y5127599D01*
X2042210Y5130292D01*
X2038350Y5132527D01*
X2036724Y5135727D01*
X2034082Y5139182D01*
X2035098Y5146192D01*
X2038756Y5152542D01*
X2047849Y5152491D01*
X2055164Y5150510D01*
X2061667Y5147411D01*
X2064664Y5144719D01*
X2067712Y5142738D01*
X2077720Y5138115D01*
X2078786Y5138115D01*
X2083358Y5141468D01*
X2091689Y5153761D01*
X2094839Y5161229D01*
X2098040Y5165242D01*
X2099970Y5171948D01*
X2097024Y5179110D01*
X2091740Y5185613D01*
X2084984Y5189372D01*
X2080615Y5193233D01*
X2077466Y5194757D01*
X2067712Y5197348D01*
X2066543Y5198465D01*
X2063292Y5203952D01*
X2061006Y5211673D01*
X2061006Y5217160D01*
X2058924Y5221884D01*
X2055114Y5225948D01*
X2048256Y5227015D01*
G37*
G36*
X1785315Y5162956D02*
G01*
X1779168Y5162804D01*
X1776120Y5162448D01*
X1769211Y5160822D01*
X1764893Y5158638D01*
X1759305Y5157419D01*
X1754682Y5155387D01*
X1751838Y5152542D01*
X1744167Y5146700D01*
X1739341Y5141620D01*
X1735582Y5134356D01*
X1730959Y5127904D01*
X1728419Y5121960D01*
X1727149Y5115509D01*
X1725269Y5096865D01*
X1725576Y5093970D01*
X1739646Y5093970D01*
X1739646Y5101590D01*
X1741068Y5113477D01*
X1743964Y5118963D01*
X1743964Y5120030D01*
X1746199Y5122468D01*
X1752549Y5132070D01*
X1755393Y5134356D01*
X1761388Y5140248D01*
X1765096Y5142128D01*
X1773123Y5144160D01*
X1780032Y5145532D01*
X1786940Y5145125D01*
X1795983Y5143042D01*
X1802790Y5140960D01*
X1806397Y5136743D01*
X1811172Y5133136D01*
X1812086Y5130901D01*
X1820113Y5120640D01*
X1822957Y5104536D01*
X1824278Y5100218D01*
X1824278Y5094884D01*
X1822602Y5087670D01*
X1820062Y5073751D01*
X1813458Y5065776D01*
X1810867Y5061204D01*
X1807362Y5058816D01*
X1802434Y5053787D01*
X1795576Y5051653D01*
X1786077Y5049520D01*
X1775256Y5050078D01*
X1765198Y5052517D01*
X1761388Y5054447D01*
X1755393Y5060340D01*
X1752498Y5062677D01*
X1746656Y5071770D01*
X1744319Y5074259D01*
X1741017Y5081727D01*
X1739646Y5093970D01*
X1725576Y5093970D01*
X1727098Y5079593D01*
X1728673Y5072684D01*
X1731619Y5066284D01*
X1735531Y5060340D01*
X1739341Y5053076D01*
X1744624Y5047742D01*
X1751939Y5042509D01*
X1755749Y5038699D01*
X1761032Y5036820D01*
X1764792Y5036108D01*
X1769211Y5033873D01*
X1775714Y5032197D01*
X1784756Y5031638D01*
X1792833Y5033264D01*
X1799894Y5036159D01*
X1805076Y5037328D01*
X1810918Y5040731D01*
X1814169Y5044084D01*
X1820824Y5048199D01*
X1823059Y5051298D01*
X1825599Y5057038D01*
X1827174Y5058003D01*
X1832000Y5065268D01*
X1833727Y5068773D01*
X1838655Y5085181D01*
X1839823Y5092649D01*
X1839823Y5102047D01*
X1838655Y5109514D01*
X1836064Y5117490D01*
X1833575Y5126380D01*
X1830374Y5132120D01*
X1824786Y5138572D01*
X1823110Y5142941D01*
X1819910Y5147005D01*
X1814169Y5150612D01*
X1810512Y5154371D01*
X1805076Y5157368D01*
X1799894Y5158638D01*
X1792427Y5161381D01*
G37*
G36*
X2307844Y5162956D02*
G01*
X2297074Y5162854D01*
X2284984Y5158892D01*
X2278227Y5157470D01*
X2272893Y5154371D01*
X2268880Y5150104D01*
X2262886Y5146649D01*
X2259736Y5142636D01*
X2257552Y5137658D01*
X2255977Y5136692D01*
X2251151Y5129428D01*
X2249424Y5125923D01*
X2244496Y5109514D01*
X2243328Y5102047D01*
X2243328Y5094884D01*
X2258872Y5094884D01*
X2258872Y5100218D01*
X2260193Y5104536D01*
X2263038Y5120640D01*
X2271064Y5130901D01*
X2271979Y5133136D01*
X2276805Y5136743D01*
X2280310Y5140909D01*
X2285847Y5142585D01*
X2294483Y5144668D01*
X2302103Y5145582D01*
X2308301Y5144516D01*
X2319121Y5141976D01*
X2322576Y5140096D01*
X2325573Y5136642D01*
X2330907Y5131714D01*
X2335072Y5124907D01*
X2338628Y5119979D01*
X2342134Y5113020D01*
X2343505Y5100726D01*
X2343505Y5093970D01*
X2342134Y5081676D01*
X2338628Y5074716D01*
X2335072Y5069789D01*
X2330907Y5062982D01*
X2325573Y5058054D01*
X2322576Y5054600D01*
X2319020Y5052618D01*
X2308758Y5050180D01*
X2301849Y5049164D01*
X2294483Y5050078D01*
X2285441Y5052161D01*
X2280056Y5054193D01*
X2277414Y5058003D01*
X2272842Y5060950D01*
X2269286Y5066284D01*
X2263140Y5073751D01*
X2260549Y5087670D01*
X2258872Y5094884D01*
X2243328Y5094884D01*
X2243328Y5092649D01*
X2244496Y5085181D01*
X2247087Y5077206D01*
X2249424Y5068773D01*
X2251405Y5064810D01*
X2256688Y5057089D01*
X2257552Y5057089D01*
X2260193Y5050891D01*
X2262936Y5047538D01*
X2268575Y5044287D01*
X2273401Y5039715D01*
X2278329Y5037226D01*
X2284984Y5035804D01*
X2295804Y5031994D01*
X2305304Y5032095D01*
X2313990Y5034127D01*
X2317394Y5035753D01*
X2325065Y5037734D01*
X2329180Y5039766D01*
X2331212Y5042255D01*
X2338171Y5047132D01*
X2344623Y5054346D01*
X2347620Y5061305D01*
X2351582Y5066893D01*
X2354326Y5072380D01*
X2356053Y5080152D01*
X2357932Y5097119D01*
X2356408Y5112004D01*
X2354732Y5120944D01*
X2351887Y5127904D01*
X2347620Y5134356D01*
X2343505Y5142026D01*
X2338120Y5147411D01*
X2331618Y5152186D01*
X2328519Y5155387D01*
X2323846Y5157419D01*
X2318258Y5158638D01*
X2315210Y5160365D01*
G37*
D10*
X2324100Y5627878D02*
G01*
X2398013Y5434076D01*
X2471927Y5627878D02*
G01*
X2398013Y5434076D01*
X2532888Y5507989D02*
G01*
X2643631Y5507989D01*
X2643631Y5526278D01*
X2634488Y5544820D01*
X2625090Y5553963D01*
X2606802Y5563362D01*
X2579115Y5563362D01*
X2560574Y5553963D01*
X2542031Y5535676D01*
X2532888Y5507989D01*
X2532888Y5489447D01*
X2542031Y5461762D01*
X2560574Y5443220D01*
X2579115Y5434076D01*
X2606802Y5434076D01*
X2625090Y5443220D01*
X2643631Y5461762D01*
X2704591Y5563362D02*
G01*
X2704591Y5434076D01*
X2704591Y5526278D02*
G01*
X2732277Y5553963D01*
X2750820Y5563362D01*
X2778506Y5563362D01*
X2797047Y5553963D01*
X2806191Y5526278D01*
X2806191Y5434076D01*
X2894838Y5627878D02*
G01*
X2894838Y5470905D01*
X2904236Y5443220D01*
X2922524Y5434076D01*
X2941065Y5434076D01*
X2867152Y5563362D02*
G01*
X2931922Y5563362D01*
X3002025Y5507989D02*
G01*
X3112770Y5507989D01*
X3112770Y5526278D01*
X3103625Y5544820D01*
X3094481Y5553963D01*
X3075940Y5563362D01*
X3048254Y5563362D01*
X3029711Y5553963D01*
X3011170Y5535676D01*
X3002025Y5507989D01*
X3002025Y5489447D01*
X3011170Y5461762D01*
X3029711Y5443220D01*
X3048254Y5434076D01*
X3075940Y5434076D01*
X3094481Y5443220D01*
X3112770Y5461762D01*
X3173729Y5563362D02*
G01*
X3173729Y5434076D01*
X3173729Y5526278D02*
G01*
X3201670Y5553963D01*
X3219958Y5563362D01*
X3247643Y5563362D01*
X3266186Y5553963D01*
X3275329Y5526278D01*
X3275329Y5434076D01*
X3447288Y5563362D02*
G01*
X3447288Y5415534D01*
X3437890Y5387847D01*
X3428745Y5378450D01*
X3410204Y5369305D01*
X3382518Y5369305D01*
X3364229Y5378450D01*
X3447288Y5535676D02*
G01*
X3428745Y5553963D01*
X3410204Y5563362D01*
X3382518Y5563362D01*
X3364229Y5553963D01*
X3345688Y5535676D01*
X3336290Y5507989D01*
X3336290Y5489447D01*
X3345688Y5461762D01*
X3364229Y5443220D01*
X3382518Y5434076D01*
X3410204Y5434076D01*
X3428745Y5443220D01*
X3447288Y5461762D01*
X3554475Y5563362D02*
G01*
X3535934Y5553963D01*
X3517391Y5535676D01*
X3508247Y5507989D01*
X3508247Y5489447D01*
X3517391Y5461762D01*
X3535934Y5443220D01*
X3554475Y5434076D01*
X3582161Y5434076D01*
X3600450Y5443220D01*
X3618991Y5461762D01*
X3628390Y5489447D01*
X3628390Y5507989D01*
X3618991Y5535676D01*
X3600450Y5553963D01*
X3582161Y5563362D01*
X3554475Y5563362D01*
D11*
X1405300Y2731515D02*
G01*
X1405300Y2622550D01*
X1405300Y2622550D02*
G01*
X1467530Y2622550D01*
X1501820Y2731515D02*
G01*
X1501820Y2622550D01*
X1501820Y2731515D02*
G01*
X1569384Y2731515D01*
X1501820Y2679700D02*
G01*
X1543476Y2679700D01*
X1501820Y2622550D02*
G01*
X1569384Y2622550D01*
X1603674Y2731515D02*
G01*
X1603674Y2622550D01*
X1603674Y2731515D02*
G01*
X1640250Y2731515D01*
X1655744Y2726436D01*
X1666158Y2716021D01*
X1671238Y2705607D01*
X1676572Y2689860D01*
X1676572Y2663952D01*
X1671238Y2648457D01*
X1666158Y2638044D01*
X1655744Y2627629D01*
X1640250Y2622550D01*
X1603674Y2622550D01*
X1710862Y2710687D02*
G01*
X1721276Y2716021D01*
X1736770Y2731515D01*
X1736770Y2622550D01*
X2167300Y2731515D02*
G01*
X2167300Y2622550D01*
X2167300Y2622550D02*
G01*
X2229530Y2622550D01*
X2263820Y2731515D02*
G01*
X2263820Y2622550D01*
X2263820Y2731515D02*
G01*
X2331384Y2731515D01*
X2263820Y2679700D02*
G01*
X2305476Y2679700D01*
X2263820Y2622550D02*
G01*
X2331384Y2622550D01*
X2365674Y2731515D02*
G01*
X2365674Y2622550D01*
X2365674Y2731515D02*
G01*
X2402250Y2731515D01*
X2417744Y2726436D01*
X2428158Y2716021D01*
X2433238Y2705607D01*
X2438572Y2689860D01*
X2438572Y2663952D01*
X2433238Y2648457D01*
X2428158Y2638044D01*
X2417744Y2627629D01*
X2402250Y2622550D01*
X2365674Y2622550D01*
X2477942Y2705607D02*
G01*
X2477942Y2710687D01*
X2483276Y2721102D01*
X2488356Y2726436D01*
X2498770Y2731515D01*
X2519598Y2731515D01*
X2530012Y2726436D01*
X2535092Y2721102D01*
X2540426Y2710687D01*
X2540426Y2700273D01*
X2535092Y2689860D01*
X2524678Y2674365D01*
X2472862Y2622550D01*
X2545506Y2622550D01*
X3441700Y5296915D02*
G01*
X3441700Y5187950D01*
X3441700Y5296915D02*
G01*
X3488436Y5296915D01*
X3503929Y5291836D01*
X3509263Y5286502D01*
X3514343Y5276087D01*
X3514343Y5265673D01*
X3509263Y5255260D01*
X3503929Y5250179D01*
X3488436Y5245100D01*
X3441700Y5245100D01*
X3478022Y5245100D02*
G01*
X3514343Y5187950D01*
X3548634Y5276087D02*
G01*
X3559047Y5281421D01*
X3574795Y5296915D01*
X3574795Y5187950D01*
X3530600Y2922015D02*
G01*
X3530600Y2813050D01*
X3530600Y2922015D02*
G01*
X3577336Y2922015D01*
X3592829Y2916936D01*
X3598163Y2911602D01*
X3603243Y2901187D01*
X3603243Y2890773D01*
X3598163Y2880360D01*
X3592829Y2875279D01*
X3577336Y2870200D01*
X3530600Y2870200D01*
X3566922Y2870200D02*
G01*
X3603243Y2813050D01*
X3642868Y2896107D02*
G01*
X3642868Y2901187D01*
X3647947Y2911602D01*
X3653281Y2916936D01*
X3663695Y2922015D01*
X3684270Y2922015D01*
X3694684Y2916936D01*
X3700018Y2911602D01*
X3705097Y2901187D01*
X3705097Y2890773D01*
X3700018Y2880360D01*
X3689604Y2864865D01*
X3637534Y2813050D01*
X3710431Y2813050D01*
X2743200Y4763515D02*
G01*
X2743200Y4685537D01*
X2748279Y4670044D01*
X2758693Y4659629D01*
X2774441Y4654550D01*
X2784856Y4654550D01*
X2800350Y4659629D01*
X2810763Y4670044D01*
X2815843Y4685537D01*
X2815843Y4763515D01*
X2850134Y4742687D02*
G01*
X2860547Y4748021D01*
X2876295Y4763515D01*
X2876295Y4654550D01*
G36*
X3508197Y3965803D02*
G01*
X3508197Y3755796D01*
X3538220Y3755796D01*
X3538220Y3965803D01*
G37*
G36*
X3418179Y3875786D02*
G01*
X3418179Y3845814D01*
X3628186Y3845814D01*
X3628186Y3875786D01*
G37*
D12*
X1300700Y2129500D02*
G01*
X1560700Y2129500D01*
X2062700Y2129500D02*
G01*
X2322700Y2129500D01*
X2867659Y4676139D02*
G01*
X2867659Y5128260D01*
X2867659Y5128260D02*
G01*
X4015740Y5128260D01*
X4015740Y5128260D02*
G01*
X4015740Y4676139D01*
X4015740Y4676139D02*
G01*
X2867659Y4676139D01*
X2956559Y2301239D02*
G01*
X2956559Y2753360D01*
X2956559Y2753360D02*
G01*
X4104640Y2753360D01*
X4104640Y2753360D02*
G01*
X4104640Y2301239D01*
X4104640Y2301239D02*
G01*
X2956559Y2301239D01*
X1679201Y3399299D02*
G01*
X1679201Y3398202D01*
X1906102Y3171301D01*
X3808199Y3399299D02*
G01*
X3808199Y3399200D01*
X3580198Y3171200D01*
X3808199Y3399299D02*
G01*
X3808199Y3532685D01*
X1679201Y3399299D02*
G01*
X1679201Y3532685D01*
X1958202Y4601298D02*
G01*
X1958202Y4601197D01*
X1678203Y4321197D01*
X3528199Y4601298D02*
G01*
X3528199Y4600298D01*
X3807198Y4321299D01*
X3807198Y4321299D02*
G01*
X3807198Y4188914D01*
X1678203Y4321197D02*
G01*
X1678203Y4188914D01*
X3528199Y4601298D02*
G01*
X1958202Y4601298D01*
G75*
G01*
X1568877Y2132330D02*
G03*
X1292525Y2132330I-138176J220244D01*
G75*
G01*
X2330877Y2132330D02*
G03*
X2054525Y2132330I-138176J220244D01*
G75*
G01*
X1906102Y3171302D02*
G02*
X3580130Y3171190I836649J-5470594D01*
M02*
