G04 Layer: BottomSilkscreenLayer*
G04 EasyEDA v6.5.50, 2025-06-19 07:24:45*
G04 7d549219ca2640139f8de253ff9de405,3f078cb1506742e7acfa9f53f525b8a4,10*
G04 Gerber Generator version 0.2*
G04 Scale: 100 percent, Rotated: No, Reflected: No *
G04 Dimensions in millimeters *
G04 leading zeros omitted , absolute positions ,4 integer and 5 decimal *
%FSLAX45Y45*%
%MOMM*%

%ADD10C,0.0001*%

%LPD*%
G36*
X2942742Y4828133D02*
G01*
X2889097Y4823968D01*
X2864967Y4821123D01*
X2838856Y4818837D01*
X2836367Y4817262D01*
X2814015Y4814620D01*
X2799283Y4811725D01*
X2782722Y4807813D01*
X2774289Y4807813D01*
X2768752Y4804867D01*
X2755036Y4802530D01*
X2740253Y4799431D01*
X2735681Y4797094D01*
X2724200Y4795469D01*
X2718816Y4793030D01*
X2708097Y4790440D01*
X2696006Y4787188D01*
X2687574Y4783531D01*
X2684322Y4783531D01*
X2670556Y4779111D01*
X2666441Y4777130D01*
X2657246Y4775098D01*
X2653131Y4772964D01*
X2635707Y4767021D01*
X2627223Y4763312D01*
X2623108Y4763312D01*
X2621584Y4760823D01*
X2612999Y4758893D01*
X2608884Y4756708D01*
X2586888Y4747107D01*
X2585262Y4747107D01*
X2553919Y4732934D01*
X2494889Y4703013D01*
X2478786Y4694174D01*
X2450642Y4677918D01*
X2392984Y4639513D01*
X2342235Y4601006D01*
X2332888Y4593285D01*
X2331161Y4593285D01*
X2322626Y4584903D01*
X2316581Y4584852D01*
X2301798Y4586884D01*
X2299055Y4589068D01*
X2284374Y4590796D01*
X2279040Y4593234D01*
X2246833Y4599330D01*
X2244140Y4601108D01*
X2228088Y4603038D01*
X2225395Y4605121D01*
X2210765Y4607102D01*
X2206599Y4609338D01*
X2191867Y4612030D01*
X2173071Y4616399D01*
X2155190Y4619599D01*
X2153208Y4621631D01*
X2139391Y4621631D01*
X2128774Y4616450D01*
X2121712Y4609338D01*
X2117140Y4599635D01*
X2118461Y4576419D01*
X2129180Y4537252D01*
X2136495Y4508957D01*
X2156510Y4436059D01*
X2160371Y4423562D01*
X2160371Y4418177D01*
X2164384Y4410405D01*
X2164384Y4405376D01*
X2168245Y4392879D01*
X2176678Y4361840D01*
X2180488Y4349699D01*
X2180488Y4345279D01*
X2184450Y4337558D01*
X2184501Y4328922D01*
X2186889Y4327448D01*
X2188718Y4317288D01*
X2192426Y4305147D01*
X2196693Y4288993D01*
X2200554Y4275836D01*
X2200554Y4270908D01*
X2203094Y4269333D01*
X2204923Y4257192D01*
X2214626Y4249166D01*
X2224328Y4249166D01*
X2235149Y4257090D01*
X2239111Y4262780D01*
X2266950Y4291787D01*
X2286609Y4313275D01*
X2323033Y4350359D01*
X2326894Y4350359D01*
X2351430Y4326534D01*
X2370531Y4309211D01*
X2430576Y4249826D01*
X2450693Y4230928D01*
X2540508Y4144314D01*
X2552344Y4133799D01*
X2584856Y4101388D01*
X2623616Y4063593D01*
X2655417Y4033926D01*
X2801264Y3892905D01*
X2865780Y3831590D01*
X2877616Y3824122D01*
X2896717Y3820109D01*
X2914142Y3824173D01*
X2919933Y3827475D01*
X2926537Y3832351D01*
X3004362Y3908450D01*
X3136544Y4040581D01*
X3140659Y4042918D01*
X3188208Y3996131D01*
X3276701Y3911142D01*
X3314141Y3876090D01*
X3355898Y3835552D01*
X3382568Y3810203D01*
X3438855Y3755745D01*
X3481781Y3715664D01*
X3514191Y3684422D01*
X3558133Y3642614D01*
X3583076Y3618382D01*
X3591712Y3613912D01*
X3601872Y3609543D01*
X3627170Y3609543D01*
X3643782Y3616960D01*
X3656482Y3628390D01*
X3664559Y3641242D01*
X3668826Y3655923D01*
X3668826Y3673144D01*
X3660698Y3692753D01*
X3633266Y3719576D01*
X3591814Y3758641D01*
X3566261Y3783228D01*
X3559251Y3789679D01*
X3514344Y3832860D01*
X3456279Y3889552D01*
X3418636Y3925976D01*
X3397300Y3946093D01*
X3318052Y4023156D01*
X3296716Y4043121D01*
X3261867Y4077208D01*
X3208426Y4128363D01*
X3161284Y4174439D01*
X3147872Y4180992D01*
X3119729Y4180992D01*
X3106318Y4174591D01*
X2894431Y3961739D01*
X2891790Y3961739D01*
X2846222Y4006443D01*
X2792577Y4058107D01*
X2717800Y4131106D01*
X2715768Y4132427D01*
X2673400Y4172915D01*
X2610205Y4235094D01*
X2560777Y4282236D01*
X2509672Y4332274D01*
X2488336Y4352391D01*
X2453436Y4386122D01*
X2405786Y4433366D01*
X2426512Y4455058D01*
X2461361Y4492701D01*
X2489555Y4521962D01*
X2494076Y4530750D01*
X2490165Y4544009D01*
X2481173Y4550206D01*
X2470759Y4551680D01*
X2463444Y4554423D01*
X2500833Y4579569D01*
X2536850Y4601362D01*
X2539593Y4601362D01*
X2540508Y4603394D01*
X2553919Y4610862D01*
X2602179Y4634738D01*
X2627274Y4646269D01*
X2641041Y4651552D01*
X2686964Y4668520D01*
X2730906Y4682185D01*
X2757728Y4689348D01*
X2775153Y4693412D01*
X2785872Y4695494D01*
X2800604Y4698746D01*
X2815539Y4702556D01*
X2824988Y4702556D01*
X2838145Y4706620D01*
X2852064Y4706620D01*
X2859532Y4709464D01*
X2890469Y4712004D01*
X2905201Y4714443D01*
X2953461Y4716729D01*
X3024530Y4716729D01*
X3078175Y4713528D01*
X3087522Y4710684D01*
X3103727Y4710684D01*
X3119170Y4706620D01*
X3130702Y4706620D01*
X3143859Y4702606D01*
X3153765Y4702556D01*
X3161284Y4699558D01*
X3177387Y4697577D01*
X3224326Y4686096D01*
X3252470Y4678070D01*
X3300729Y4662220D01*
X3319526Y4655261D01*
X3358387Y4638802D01*
X3398621Y4619599D01*
X3399993Y4618228D01*
X3421430Y4607458D01*
X3422751Y4606086D01*
X3433470Y4600702D01*
X3444240Y4593640D01*
X3455415Y4587189D01*
X3475075Y4575200D01*
X3477768Y4572914D01*
X3491179Y4564176D01*
X3513937Y4548276D01*
X3552850Y4518660D01*
X3578301Y4498136D01*
X3579672Y4496612D01*
X3619855Y4460087D01*
X3666794Y4408982D01*
X3699103Y4368596D01*
X3718610Y4341622D01*
X3725773Y4330801D01*
X3727297Y4329480D01*
X3733698Y4318660D01*
X3735324Y4317288D01*
X3741775Y4306519D01*
X3743502Y4305147D01*
X3747262Y4297984D01*
X3764026Y4270654D01*
X3764026Y4269079D01*
X3773170Y4253890D01*
X3794607Y4210710D01*
X3802938Y4192473D01*
X3815334Y4162145D01*
X3824681Y4136491D01*
X3841343Y4085183D01*
X3850081Y4052824D01*
X3853027Y4043375D01*
X3855008Y4031234D01*
X3860952Y4006951D01*
X3862933Y3993438D01*
X3868877Y3962400D01*
X3870756Y3939387D01*
X3872737Y3936187D01*
X3875328Y3897629D01*
X3877818Y3874719D01*
X3877818Y3780231D01*
X3875278Y3757269D01*
X3872737Y3723538D01*
X3869944Y3714140D01*
X3869944Y3700373D01*
X3865930Y3687114D01*
X3865829Y3674973D01*
X3861917Y3664204D01*
X3861917Y3655568D01*
X3858971Y3647998D01*
X3856736Y3634486D01*
X3850132Y3608832D01*
X3841800Y3579164D01*
X3824071Y3525164D01*
X3809898Y3488639D01*
X3796995Y3459073D01*
X3772560Y3410508D01*
X3762654Y3394303D01*
X3759708Y3386886D01*
X3757320Y3386886D01*
X3757320Y3383229D01*
X3749294Y3372053D01*
X3749294Y3369513D01*
X3745788Y3365957D01*
X3739337Y3355136D01*
X3737711Y3353815D01*
X3731310Y3342995D01*
X3729837Y3341674D01*
X3715258Y3320084D01*
X3690975Y3287674D01*
X3688130Y3284677D01*
X3678885Y3273094D01*
X3646830Y3235045D01*
X3598418Y3186125D01*
X3542131Y3138728D01*
X3530092Y3130651D01*
X3529482Y3131261D01*
X3528669Y3496868D01*
X3522878Y3507638D01*
X3513937Y3515918D01*
X3505911Y3521151D01*
X3277971Y3521151D01*
X3267252Y3515969D01*
X3259124Y3507638D01*
X3253841Y3499561D01*
X3253079Y2983484D01*
X3201517Y2969717D01*
X3187903Y2965856D01*
X3182975Y2965856D01*
X3169361Y2961944D01*
X3147872Y2957576D01*
X3135833Y2954731D01*
X3118408Y2952546D01*
X3096920Y2949498D01*
X3071469Y2945333D01*
X3060750Y2946247D01*
X3059379Y3688486D01*
X3053130Y3701287D01*
X3043428Y3709314D01*
X3027375Y3714800D01*
X2814675Y3714800D01*
X2798216Y3710178D01*
X2784500Y3697528D01*
X2780588Y3687114D01*
X2779166Y2963824D01*
X2776474Y2963976D01*
X2768447Y2966008D01*
X2742946Y2973933D01*
X2679344Y2995625D01*
X2659837Y3003600D01*
X2657551Y3003651D01*
X2642412Y3010204D01*
X2627630Y3016046D01*
X2604871Y3026257D01*
X2590088Y3032506D01*
X2584145Y3036671D01*
X2583992Y4021785D01*
X2581605Y4032199D01*
X2573782Y4042003D01*
X2559354Y4050792D01*
X2335326Y4050741D01*
X2324608Y4045813D01*
X2315514Y4038092D01*
X2309164Y4023715D01*
X2309164Y3248304D01*
X2307336Y3246475D01*
X2299614Y3255314D01*
X2284374Y3274212D01*
X2283002Y3275533D01*
X2268372Y3294430D01*
X2266899Y3295802D01*
X2256586Y3310432D01*
X2254097Y3313328D01*
X2237435Y3337255D01*
X2234692Y3340303D01*
X2228189Y3351123D01*
X2226716Y3352444D01*
X2200859Y3395624D01*
X2192121Y3411829D01*
X2166061Y3464458D01*
X2150618Y3502151D01*
X2141372Y3527907D01*
X2132634Y3553510D01*
X2116124Y3609238D01*
X2116124Y3615080D01*
X2113127Y3620668D01*
X2110841Y3634486D01*
X2107844Y3649319D01*
X2104034Y3663086D01*
X2104034Y3672281D01*
X2100021Y3685540D01*
X2100021Y3699764D01*
X2097125Y3707384D01*
X2094636Y3737051D01*
X2092198Y3753256D01*
X2091943Y3782923D01*
X2089099Y3812641D01*
X2092045Y3894937D01*
X2094788Y3917899D01*
X2097074Y3947566D01*
X2100021Y3955186D01*
X2100122Y3970528D01*
X2103983Y3981297D01*
X2104136Y3993438D01*
X2108047Y4004259D01*
X2108047Y4013098D01*
X2112060Y4022801D01*
X2112060Y4029659D01*
X2128215Y4087926D01*
X2142744Y4132427D01*
X2151989Y4158081D01*
X2166721Y4194505D01*
X2172665Y4207205D01*
X2171750Y4212031D01*
X2162352Y4212945D01*
X2160320Y4214926D01*
X2148078Y4288993D01*
X2145690Y4307027D01*
X2144166Y4313275D01*
X2137765Y4357268D01*
X2134463Y4361281D01*
X2128215Y4355338D01*
X2126691Y4350410D01*
X2111806Y4324045D01*
X2109368Y4318660D01*
X2102815Y4307890D01*
X2102713Y4303166D01*
X2100072Y4303166D01*
X2098243Y4295698D01*
X2096516Y4294378D01*
X2090623Y4282795D01*
X2090623Y4280001D01*
X2086610Y4275937D01*
X2086610Y4270756D01*
X2084120Y4270756D01*
X2082342Y4264660D01*
X2072030Y4241749D01*
X2055875Y4203954D01*
X2054148Y4196537D01*
X2051761Y4195013D01*
X2051710Y4190441D01*
X2047697Y4182719D01*
X2047697Y4178249D01*
X2043938Y4172762D01*
X2042058Y4162755D01*
X2039924Y4161434D01*
X2038096Y4150664D01*
X2035657Y4149140D01*
X2035657Y4141724D01*
X2031695Y4136491D01*
X2031593Y4129735D01*
X2027631Y4122013D01*
X2027580Y4116222D01*
X2023567Y4108500D01*
X2023618Y4104081D01*
X2019807Y4091940D01*
X2008733Y4047439D01*
X2006193Y4031742D01*
X2003501Y4026662D01*
X2003501Y4017467D01*
X1999488Y4004259D01*
X1999437Y3994302D01*
X1996541Y3986682D01*
X1994357Y3966464D01*
X1991461Y3947566D01*
X1987448Y3911142D01*
X1983028Y3851757D01*
X1984400Y3770782D01*
X1987448Y3734358D01*
X1991461Y3701948D01*
X1991461Y3691178D01*
X1995424Y3676345D01*
X1995424Y3663696D01*
X1998319Y3656076D01*
X2000504Y3638550D01*
X2003704Y3622344D01*
X2006295Y3613658D01*
X2008733Y3600754D01*
X2015947Y3571087D01*
X2019554Y3562553D01*
X2019554Y3555847D01*
X2023567Y3548126D01*
X2023567Y3542385D01*
X2027580Y3534613D01*
X2027682Y3527907D01*
X2031644Y3522624D01*
X2031695Y3515715D01*
X2035657Y3510483D01*
X2035657Y3505911D01*
X2039670Y3498189D01*
X2039670Y3493770D01*
X2043684Y3486048D01*
X2043684Y3481476D01*
X2046071Y3480003D01*
X2047798Y3472535D01*
X2054301Y3457701D01*
X2064105Y3433419D01*
X2078837Y3401060D01*
X2096007Y3365957D01*
X2103882Y3351123D01*
X2106726Y3347821D01*
X2106726Y3346246D01*
X2124506Y3314649D01*
X2143302Y3284982D01*
X2160524Y3259328D01*
X2173376Y3241040D01*
X2178456Y3235045D01*
X2182977Y3228035D01*
X2186584Y3224276D01*
X2199487Y3207258D01*
X2204110Y3202686D01*
X2216556Y3186480D01*
X2227681Y3174339D01*
X2238806Y3160928D01*
X2253538Y3144875D01*
X2289962Y3108198D01*
X2304592Y3094736D01*
X2329992Y3072231D01*
X2348738Y3057042D01*
X2352497Y3053334D01*
X2367534Y3042310D01*
X2371547Y3038652D01*
X2405227Y3013405D01*
X2433218Y2994558D01*
X2452014Y2982518D01*
X2488590Y2960420D01*
X2489758Y2960420D01*
X2517749Y2944723D01*
X2548534Y2929737D01*
X2587396Y2912262D01*
X2604871Y2905252D01*
X2617419Y2899714D01*
X2620314Y2899714D01*
X2624937Y2897174D01*
X2634081Y2892958D01*
X2637028Y2892958D01*
X2644495Y2889046D01*
X2653842Y2887268D01*
X2655265Y2884881D01*
X2659837Y2884881D01*
X2667508Y2880817D01*
X2673248Y2880715D01*
X2679954Y2876854D01*
X2685288Y2876753D01*
X2692247Y2873095D01*
X2702712Y2871114D01*
X2705404Y2869031D01*
X2716123Y2867101D01*
X2718816Y2865018D01*
X2730652Y2863189D01*
X2733548Y2861259D01*
X2748330Y2857804D01*
X2759049Y2855671D01*
X2768447Y2852674D01*
X2783179Y2849676D01*
X2797911Y2847390D01*
X2805480Y2844393D01*
X2815590Y2844393D01*
X2828747Y2840380D01*
X2840837Y2840329D01*
X2855569Y2836316D01*
X2871673Y2836214D01*
X2882392Y2833522D01*
X2922625Y2830982D01*
X2954832Y2828239D01*
X3016504Y2828137D01*
X3074162Y2832303D01*
X3102305Y2836316D01*
X3115970Y2836316D01*
X3129127Y2840329D01*
X3141522Y2840329D01*
X3152902Y2844393D01*
X3162655Y2844444D01*
X3175812Y2848457D01*
X3184093Y2848457D01*
X3194812Y2852369D01*
X3204718Y2852470D01*
X3206292Y2855010D01*
X3218942Y2856687D01*
X3223056Y2858871D01*
X3232353Y2860649D01*
X3247136Y2864866D01*
X3259175Y2868676D01*
X3265068Y2868676D01*
X3266592Y2871165D01*
X3277514Y2872994D01*
X3284677Y2876753D01*
X3289046Y2876804D01*
X3296716Y2880817D01*
X3301136Y2880817D01*
X3308807Y2884881D01*
X3314649Y2884881D01*
X3316224Y2887370D01*
X3324402Y2889199D01*
X3331565Y2892958D01*
X3336137Y2892958D01*
X3337661Y2895447D01*
X3346246Y2897378D01*
X3350361Y2899613D01*
X3367125Y2906471D01*
X3371799Y2908198D01*
X3388766Y2915920D01*
X3390239Y2915920D01*
X3424123Y2932277D01*
X3464356Y2952292D01*
X3491179Y2967431D01*
X3520643Y2985211D01*
X3558184Y3010509D01*
X3571595Y3020060D01*
X3591712Y3035147D01*
X3593033Y3036925D01*
X3607206Y3046882D01*
X3611930Y3051556D01*
X3622344Y3059633D01*
X3631946Y3067710D01*
X3633266Y3069183D01*
X3660089Y3091891D01*
X3724452Y3156458D01*
X3750614Y3187039D01*
X3766007Y3205886D01*
X3777386Y3218840D01*
X3777437Y3220669D01*
X3780942Y3224276D01*
X3802227Y3252978D01*
X3806240Y3259023D01*
X3808933Y3262071D01*
X3834790Y3301187D01*
X3851198Y3328924D01*
X3851198Y3330244D01*
X3862781Y3349751D01*
X3868826Y3362553D01*
X3871264Y3364077D01*
X3871264Y3369310D01*
X3873906Y3369310D01*
X3875735Y3376726D01*
X3877513Y3378098D01*
X3891178Y3406444D01*
X3906164Y3439312D01*
X3906164Y3440988D01*
X3916883Y3465829D01*
X3921861Y3477971D01*
X3925112Y3487420D01*
X3927856Y3496868D01*
X3930294Y3499408D01*
X3930294Y3503574D01*
X3934053Y3510838D01*
X3935933Y3519779D01*
X3938015Y3522472D01*
X3939997Y3531819D01*
X3941978Y3535984D01*
X3946347Y3549853D01*
X3946347Y3554120D01*
X3950106Y3562959D01*
X3961231Y3607511D01*
X3963415Y3619652D01*
X3970528Y3650691D01*
X3970528Y3660140D01*
X3974541Y3673398D01*
X3974642Y3685794D01*
X3978452Y3703320D01*
X3978554Y3717036D01*
X3983024Y3746500D01*
X3983024Y3900322D01*
X3978554Y3929837D01*
X3978503Y3946194D01*
X3975760Y3957015D01*
X3973423Y3979926D01*
X3967530Y4010964D01*
X3965498Y4025849D01*
X3962298Y4040682D01*
X3958437Y4054398D01*
X3958437Y4061256D01*
X3954424Y4070959D01*
X3954424Y4077462D01*
X3950411Y4085183D01*
X3950411Y4093819D01*
X3947922Y4095343D01*
X3946042Y4106773D01*
X3942334Y4114088D01*
X3942334Y4120642D01*
X3938320Y4128363D01*
X3938320Y4133138D01*
X3935831Y4137812D01*
X3929887Y4158081D01*
X3926281Y4166565D01*
X3926281Y4169257D01*
X3922268Y4176979D01*
X3922217Y4181144D01*
X3919982Y4183735D01*
X3915206Y4197197D01*
X3895699Y4243070D01*
X3879138Y4278172D01*
X3876852Y4282236D01*
X3859326Y4317288D01*
X3837482Y4355084D01*
X3809085Y4398264D01*
X3790696Y4423918D01*
X3756812Y4466945D01*
X3752596Y4471365D01*
X3747211Y4477918D01*
X3742740Y4484268D01*
X3717848Y4511649D01*
X3672179Y4557522D01*
X3656076Y4572355D01*
X3643884Y4583176D01*
X3631946Y4593031D01*
X3625240Y4598974D01*
X3609136Y4611370D01*
X3607815Y4613148D01*
X3559556Y4649266D01*
X3528720Y4669790D01*
X3485794Y4695494D01*
X3460292Y4709363D01*
X3414725Y4731969D01*
X3399993Y4738725D01*
X3359200Y4756556D01*
X3355238Y4756556D01*
X3353663Y4759045D01*
X3345078Y4760925D01*
X3340963Y4763109D01*
X3331972Y4767275D01*
X3322828Y4769002D01*
X3321354Y4771390D01*
X3316833Y4771440D01*
X3309162Y4775454D01*
X3304794Y4775454D01*
X3297072Y4779518D01*
X3292703Y4779518D01*
X3285744Y4783175D01*
X3275634Y4785106D01*
X3271265Y4787392D01*
X3228340Y4798466D01*
X3215792Y4800904D01*
X3210407Y4803800D01*
X3202533Y4803800D01*
X3191154Y4807813D01*
X3182416Y4807813D01*
X3171037Y4811877D01*
X3161080Y4811877D01*
X3147872Y4815890D01*
X3135833Y4815992D01*
X3119729Y4819904D01*
X3107232Y4819954D01*
X3086201Y4824018D01*
X3064764Y4824272D01*
X3031236Y4827727D01*
G37*
M02*
