G04 Layer: TopSilkscreenLayer*
G04 EasyEDA v6.5.50, 2025-06-19 07:24:45*
G04 7d549219ca2640139f8de253ff9de405,3f078cb1506742e7acfa9f53f525b8a4,10*
G04 Gerber Generator version 0.2*
G04 Scale: 100 percent, Rotated: No, Reflected: No *
G04 Dimensions in millimeters *
G04 leading zeros omitted , absolute positions ,4 integer and 5 decimal *
%FSLAX45Y45*%
%MOMM*%

%ADD10C,0.2032*%
%ADD11C,0.1524*%
%ADD12C,0.2540*%
%ADD13C,0.0153*%

%LPD*%
G36*
X4635449Y2985414D02*
G01*
X3063544Y2985312D01*
X3054045Y2977337D01*
X3050032Y2977337D01*
X3050032Y2127859D01*
X3071469Y2127859D01*
X3071469Y2942996D01*
X3072333Y2948635D01*
X3079445Y2951734D01*
X3088436Y2952953D01*
X4617923Y2952750D01*
X4627067Y2948736D01*
X4628642Y2938576D01*
X4628642Y2132228D01*
X4627067Y2122068D01*
X4617212Y2118055D01*
X3082188Y2118055D01*
X3072333Y2122068D01*
X3071469Y2127859D01*
X3050032Y2127859D01*
X3050032Y2094382D01*
X3054705Y2094382D01*
X3056636Y2091385D01*
X3063798Y2085390D01*
X4635449Y2085390D01*
X4643882Y2091791D01*
X4647996Y2099106D01*
X4650079Y2108149D01*
X4650079Y2962706D01*
X4647996Y2971698D01*
X4643882Y2979013D01*
G37*
G36*
X3223869Y2899257D02*
G01*
X3212795Y2897835D01*
X3207461Y2896108D01*
X3202736Y2890164D01*
X3198672Y2879547D01*
X3198672Y2875838D01*
X3194558Y2855976D01*
X3189579Y2845409D01*
X3182416Y2826613D01*
X3176168Y2818942D01*
X3163112Y2804820D01*
X3151987Y2799537D01*
X3137509Y2794609D01*
X3126435Y2790240D01*
X3121152Y2783687D01*
X3118358Y2777845D01*
X3116478Y2763977D01*
X3116478Y2318461D01*
X3139897Y2318461D01*
X3139897Y2752547D01*
X3144418Y2763977D01*
X3154070Y2766822D01*
X3161690Y2771800D01*
X3163722Y2774035D01*
X3173425Y2778099D01*
X3177590Y2780792D01*
X3182569Y2786380D01*
X3190494Y2793492D01*
X3199638Y2807817D01*
X3204362Y2813964D01*
X3207054Y2821838D01*
X3214268Y2835554D01*
X3217926Y2847187D01*
X3220008Y2857042D01*
X3225038Y2867304D01*
X4474311Y2867304D01*
X4479290Y2857906D01*
X4483557Y2840939D01*
X4488484Y2829306D01*
X4491888Y2823464D01*
X4494682Y2815234D01*
X4501794Y2804922D01*
X4508449Y2793847D01*
X4516983Y2786024D01*
X4521860Y2780792D01*
X4525975Y2778099D01*
X4535373Y2774137D01*
X4545025Y2766872D01*
X4555032Y2763977D01*
X4559503Y2752547D01*
X4559503Y2318308D01*
X4555032Y2306828D01*
X4545025Y2303983D01*
X4535373Y2296718D01*
X4525975Y2292705D01*
X4521860Y2290064D01*
X4516983Y2284780D01*
X4508601Y2277059D01*
X4499813Y2262987D01*
X4495088Y2256891D01*
X4491024Y2246020D01*
X4484268Y2231999D01*
X4478629Y2211832D01*
X4474514Y2203500D01*
X3224580Y2203958D01*
X3220008Y2213813D01*
X3217926Y2223617D01*
X3214268Y2235200D01*
X3205581Y2252065D01*
X3205581Y2254402D01*
X3198266Y2264765D01*
X3190544Y2277313D01*
X3182569Y2284476D01*
X3177590Y2290013D01*
X3174593Y2292045D01*
X3164433Y2296769D01*
X3158896Y2301646D01*
X3154476Y2304592D01*
X3143961Y2307336D01*
X3139897Y2318461D01*
X3116478Y2318461D01*
X3116478Y2306828D01*
X3118358Y2292959D01*
X3121152Y2287168D01*
X3126435Y2280615D01*
X3137509Y2276246D01*
X3151987Y2271318D01*
X3163316Y2265934D01*
X3175152Y2252726D01*
X3179216Y2250033D01*
X3182874Y2243886D01*
X3189071Y2225598D01*
X3194354Y2215540D01*
X3198672Y2196084D01*
X3198672Y2191410D01*
X3201924Y2182469D01*
X3206902Y2175052D01*
X3216960Y2171750D01*
X4482439Y2171750D01*
X4492498Y2175052D01*
X4497476Y2182469D01*
X4500727Y2191410D01*
X4500778Y2194763D01*
X4505858Y2215591D01*
X4509871Y2224125D01*
X4516475Y2243632D01*
X4519523Y2249170D01*
X4526686Y2255113D01*
X4535627Y2265527D01*
X4544669Y2270861D01*
X4561230Y2275992D01*
X4573422Y2280767D01*
X4580229Y2290368D01*
X4582668Y2299665D01*
X4583074Y2761284D01*
X4581550Y2775610D01*
X4578908Y2782824D01*
X4572965Y2790240D01*
X4561941Y2794660D01*
X4545533Y2799435D01*
X4536795Y2804058D01*
X4526686Y2815691D01*
X4519523Y2821635D01*
X4516526Y2827121D01*
X4509312Y2848102D01*
X4505858Y2855264D01*
X4499356Y2884170D01*
X4493056Y2895041D01*
X4487265Y2896971D01*
X4482439Y2899054D01*
G37*
G36*
X3843832Y2812542D02*
G01*
X3837635Y2811780D01*
X3817569Y2808122D01*
X3803040Y2803956D01*
X3788562Y2801061D01*
X3778300Y2797454D01*
X3768090Y2791358D01*
X3760215Y2785262D01*
X3750818Y2781300D01*
X3738778Y2770124D01*
X3729228Y2764434D01*
X3720795Y2756611D01*
X3715969Y2750566D01*
X3706977Y2741371D01*
X3687572Y2715666D01*
X3682593Y2705862D01*
X3678174Y2700477D01*
X3672230Y2689758D01*
X3667861Y2677972D01*
X3662273Y2669235D01*
X3659428Y2662021D01*
X3656228Y2649829D01*
X3651300Y2639314D01*
X3647236Y2627630D01*
X3644493Y2614574D01*
X3642207Y2595778D01*
X3639058Y2577033D01*
X3635908Y2550160D01*
X3635959Y2519730D01*
X3636378Y2516174D01*
X3661460Y2516174D01*
X3661460Y2554630D01*
X3663187Y2584196D01*
X3665169Y2602941D01*
X3676904Y2635351D01*
X3681628Y2651760D01*
X3686708Y2659735D01*
X3691991Y2674518D01*
X3704336Y2691638D01*
X3710279Y2704033D01*
X3715613Y2708960D01*
X3719423Y2715869D01*
X3729024Y2723591D01*
X3742232Y2739593D01*
X3749852Y2743911D01*
X3753967Y2746857D01*
X3760520Y2753461D01*
X3777487Y2760980D01*
X3797046Y2774238D01*
X3818280Y2777642D01*
X3888079Y2777185D01*
X3901897Y2774340D01*
X3923995Y2759964D01*
X3938066Y2754833D01*
X3942689Y2750718D01*
X3946804Y2745740D01*
X3957167Y2739542D01*
X3970426Y2723591D01*
X3979976Y2715869D01*
X3983786Y2708960D01*
X3989120Y2704033D01*
X3995115Y2691638D01*
X4007459Y2674518D01*
X4010761Y2664663D01*
X4013047Y2659329D01*
X4017822Y2651556D01*
X4022496Y2635351D01*
X4034231Y2602941D01*
X4036263Y2584196D01*
X4037990Y2554630D01*
X4037990Y2516174D01*
X4036263Y2486660D01*
X4034231Y2467864D01*
X4022496Y2435453D01*
X4017924Y2419451D01*
X4012285Y2410256D01*
X4007104Y2394153D01*
X3995165Y2379319D01*
X3988968Y2366314D01*
X3986682Y2365349D01*
X3980535Y2356866D01*
X3979976Y2355037D01*
X3969664Y2346452D01*
X3958894Y2331720D01*
X3946398Y2324963D01*
X3939286Y2317699D01*
X3926890Y2311755D01*
X3901897Y2296515D01*
X3886708Y2293924D01*
X3860393Y2292096D01*
X3834129Y2292096D01*
X3812032Y2293975D01*
X3797503Y2296566D01*
X3772509Y2311755D01*
X3759962Y2317800D01*
X3753967Y2323998D01*
X3749852Y2326944D01*
X3742232Y2331262D01*
X3729024Y2347214D01*
X3719423Y2354935D01*
X3715613Y2361844D01*
X3710279Y2366772D01*
X3704285Y2379319D01*
X3692296Y2394153D01*
X3687165Y2410155D01*
X3681222Y2420061D01*
X3675430Y2441905D01*
X3665270Y2467102D01*
X3663187Y2486660D01*
X3661460Y2516174D01*
X3636378Y2516174D01*
X3638905Y2494686D01*
X3642309Y2474112D01*
X3645103Y2452065D01*
X3648608Y2438704D01*
X3652875Y2427681D01*
X3656329Y2420620D01*
X3659632Y2408123D01*
X3663289Y2399893D01*
X3667760Y2391816D01*
X3670604Y2383383D01*
X3674872Y2375306D01*
X3684168Y2362098D01*
X3689553Y2352090D01*
X3710432Y2325522D01*
X3718051Y2319070D01*
X3722166Y2313381D01*
X3730650Y2305507D01*
X3738778Y2300732D01*
X3750919Y2289454D01*
X3760876Y2285390D01*
X3768445Y2279294D01*
X3778300Y2273350D01*
X3788562Y2269744D01*
X3803040Y2266848D01*
X3817975Y2262581D01*
X3839006Y2258618D01*
X3860393Y2258618D01*
X3881475Y2262581D01*
X3896360Y2266848D01*
X3910888Y2269744D01*
X3920947Y2273300D01*
X3929989Y2278583D01*
X3938117Y2284984D01*
X3947566Y2289149D01*
X3952341Y2292248D01*
X3960368Y2300325D01*
X3969613Y2306167D01*
X3976522Y2312873D01*
X3982770Y2320340D01*
X3988968Y2325573D01*
X4009847Y2352090D01*
X4015232Y2362047D01*
X4023309Y2373833D01*
X4027220Y2381199D01*
X4031335Y2392172D01*
X4037533Y2402535D01*
X4039920Y2408732D01*
X4043172Y2420975D01*
X4048099Y2431542D01*
X4052214Y2443175D01*
X4054906Y2456230D01*
X4057192Y2475026D01*
X4060494Y2494330D01*
X4063542Y2521559D01*
X4063542Y2549296D01*
X4060494Y2576525D01*
X4057192Y2595778D01*
X4054906Y2614574D01*
X4052214Y2627630D01*
X4048099Y2639314D01*
X4043172Y2649829D01*
X4039920Y2662123D01*
X4037533Y2668270D01*
X4031335Y2678684D01*
X4027170Y2689758D01*
X4021277Y2700477D01*
X4016857Y2705862D01*
X4011828Y2715666D01*
X3991356Y2742692D01*
X3983583Y2749702D01*
X3975150Y2759557D01*
X3968546Y2765450D01*
X3960622Y2770124D01*
X3948582Y2781300D01*
X3939235Y2785313D01*
X3927449Y2794000D01*
X3917086Y2799130D01*
X3898442Y2804515D01*
X3881170Y2808224D01*
X3861917Y2811881D01*
G37*
G36*
X3845204Y2769616D02*
G01*
X3836212Y2766060D01*
X3826967Y2757170D01*
X3824173Y2751328D01*
X3822090Y2726944D01*
X3818432Y2715209D01*
X3816553Y2715209D01*
X3804615Y2709418D01*
X3796436Y2700223D01*
X3788562Y2694787D01*
X3782669Y2688285D01*
X3775811Y2675432D01*
X3770985Y2670454D01*
X3767582Y2662885D01*
X3764584Y2650388D01*
X3760520Y2637485D01*
X3756863Y2618181D01*
X3756863Y2611018D01*
X3781602Y2611018D01*
X3783990Y2628900D01*
X3786987Y2645918D01*
X3789476Y2652318D01*
X3796334Y2661412D01*
X3800094Y2669692D01*
X3807917Y2674772D01*
X3816451Y2684678D01*
X3818940Y2685592D01*
X3827272Y2687624D01*
X3836212Y2691384D01*
X3843934Y2701391D01*
X3847541Y2715666D01*
X3849217Y2727299D01*
X3854094Y2739847D01*
X3856583Y2732684D01*
X3857853Y2723743D01*
X3859326Y2708910D01*
X3862222Y2700477D01*
X3866642Y2694482D01*
X3871722Y2690266D01*
X3890111Y2686405D01*
X3898595Y2683052D01*
X3903979Y2677464D01*
X3908094Y2674772D01*
X3912615Y2669235D01*
X3911701Y2657551D01*
X3908196Y2651150D01*
X3899306Y2647848D01*
X3896360Y2650236D01*
X3881170Y2660396D01*
X3858768Y2662682D01*
X3839667Y2661818D01*
X3829507Y2657195D01*
X3824071Y2652522D01*
X3819093Y2642311D01*
X3813962Y2635046D01*
X3811066Y2623515D01*
X3810152Y2611577D01*
X3813251Y2599385D01*
X3822141Y2583840D01*
X3829304Y2577642D01*
X3834333Y2571343D01*
X3841089Y2566924D01*
X3848150Y2564180D01*
X3852824Y2561132D01*
X3863035Y2553106D01*
X3869385Y2549601D01*
X3881120Y2545994D01*
X3885285Y2543200D01*
X3892194Y2535174D01*
X3900525Y2529890D01*
X3903878Y2524099D01*
X3909314Y2518867D01*
X3915156Y2508148D01*
X3921404Y2492908D01*
X3925925Y2475941D01*
X3926636Y2463800D01*
X3924909Y2449982D01*
X3921658Y2435656D01*
X3918458Y2425801D01*
X3907434Y2403449D01*
X3894429Y2392324D01*
X3890721Y2387752D01*
X3883609Y2384247D01*
X3873550Y2382266D01*
X3867912Y2379065D01*
X3862832Y2372563D01*
X3860037Y2365400D01*
X3857091Y2342642D01*
X3854145Y2333802D01*
X3850284Y2342286D01*
X3846829Y2357729D01*
X3842969Y2368550D01*
X3837635Y2375509D01*
X3828338Y2381351D01*
X3820312Y2382520D01*
X3807917Y2385364D01*
X3800957Y2388819D01*
X3796487Y2393289D01*
X3788867Y2397607D01*
X3783482Y2402027D01*
X3782314Y2413304D01*
X3786022Y2424938D01*
X3790899Y2429611D01*
X3800957Y2424938D01*
X3808577Y2417470D01*
X3818280Y2411272D01*
X3828643Y2409291D01*
X3850741Y2407310D01*
X3861104Y2408478D01*
X3872179Y2411272D01*
X3874719Y2413000D01*
X3889451Y2430830D01*
X3892397Y2437079D01*
X3894277Y2450846D01*
X3894277Y2474112D01*
X3890873Y2483053D01*
X3876090Y2501138D01*
X3867150Y2506624D01*
X3859733Y2513990D01*
X3848658Y2521102D01*
X3839006Y2523947D01*
X3830421Y2527452D01*
X3825849Y2531821D01*
X3812844Y2539949D01*
X3805783Y2548382D01*
X3794302Y2560929D01*
X3790442Y2564079D01*
X3787343Y2573426D01*
X3782466Y2597607D01*
X3781602Y2611018D01*
X3756863Y2611018D01*
X3756863Y2600299D01*
X3759301Y2589530D01*
X3764584Y2571648D01*
X3766007Y2562504D01*
X3768953Y2552344D01*
X3776167Y2542133D01*
X3779316Y2535478D01*
X3785108Y2529636D01*
X3786886Y2526436D01*
X3796741Y2516276D01*
X3809644Y2509570D01*
X3815994Y2502357D01*
X3823106Y2498953D01*
X3834637Y2494889D01*
X3841750Y2488641D01*
X3863898Y2474823D01*
X3866184Y2471420D01*
X3872280Y2459583D01*
X3867200Y2448661D01*
X3864711Y2445054D01*
X3854500Y2436114D01*
X3842207Y2436114D01*
X3826560Y2442210D01*
X3818890Y2446426D01*
X3812032Y2451963D01*
X3801821Y2458923D01*
X3797503Y2464866D01*
X3791661Y2469388D01*
X3780942Y2466340D01*
X3768394Y2449982D01*
X3764432Y2437434D01*
X3757218Y2427224D01*
X3752850Y2415794D01*
X3751478Y2402738D01*
X3752240Y2398776D01*
X3760876Y2386330D01*
X3769868Y2376576D01*
X3773322Y2373833D01*
X3779977Y2370632D01*
X3787140Y2364333D01*
X3793490Y2360168D01*
X3801668Y2357526D01*
X3812032Y2355494D01*
X3818280Y2350312D01*
X3820820Y2344775D01*
X3823258Y2331008D01*
X3824122Y2319477D01*
X3827170Y2313736D01*
X3835654Y2306269D01*
X3844544Y2302611D01*
X3865270Y2303576D01*
X3872433Y2305608D01*
X3877970Y2313432D01*
X3880104Y2320036D01*
X3881424Y2334564D01*
X3882796Y2343708D01*
X3887825Y2354783D01*
X3903522Y2362911D01*
X3906012Y2366467D01*
X3918559Y2376017D01*
X3931818Y2394051D01*
X3934968Y2402535D01*
X3940860Y2412390D01*
X3945686Y2424938D01*
X3947160Y2441905D01*
X3948379Y2471420D01*
X3947109Y2491130D01*
X3945077Y2503576D01*
X3941267Y2513380D01*
X3934917Y2522423D01*
X3929837Y2534970D01*
X3924300Y2540050D01*
X3918915Y2549448D01*
X3913581Y2554935D01*
X3901440Y2562199D01*
X3893921Y2571089D01*
X3883202Y2576525D01*
X3870096Y2585212D01*
X3863898Y2589885D01*
X3850741Y2594711D01*
X3844544Y2598775D01*
X3841953Y2604465D01*
X3837686Y2610713D01*
X3839362Y2623312D01*
X3845153Y2634691D01*
X3859733Y2634691D01*
X3871468Y2631084D01*
X3881831Y2625547D01*
X3886708Y2620721D01*
X3891534Y2617063D01*
X3907536Y2608783D01*
X3909212Y2608783D01*
X3916527Y2614828D01*
X3929887Y2636977D01*
X3934917Y2650388D01*
X3940048Y2657652D01*
X3943146Y2669692D01*
X3938371Y2682595D01*
X3929938Y2694330D01*
X3919169Y2701086D01*
X3912209Y2707995D01*
X3907129Y2710738D01*
X3891534Y2715463D01*
X3889654Y2717393D01*
X3884472Y2727299D01*
X3880815Y2741218D01*
X3880815Y2751074D01*
X3877462Y2759608D01*
X3871417Y2766872D01*
X3860393Y2768854D01*
G37*
G36*
X3439718Y2653487D02*
G01*
X3429863Y2653233D01*
X3424986Y2652623D01*
X3413963Y2649677D01*
X3407054Y2645765D01*
X3398113Y2643479D01*
X3390696Y2639923D01*
X3386124Y2634742D01*
X3373882Y2624175D01*
X3366109Y2615133D01*
X3360165Y2602077D01*
X3352698Y2590444D01*
X3348634Y2579674D01*
X3346653Y2568092D01*
X3343803Y2536190D01*
X3366566Y2536190D01*
X3366566Y2542997D01*
X3368903Y2564485D01*
X3373526Y2574340D01*
X3373526Y2576271D01*
X3377133Y2580589D01*
X3387293Y2597861D01*
X3391814Y2601976D01*
X3401415Y2612593D01*
X3407359Y2615996D01*
X3420160Y2619705D01*
X3431235Y2622092D01*
X3442309Y2621432D01*
X3456787Y2617622D01*
X3467658Y2613914D01*
X3473399Y2606344D01*
X3481120Y2599842D01*
X3482543Y2595778D01*
X3495344Y2577338D01*
X3499967Y2548280D01*
X3502050Y2540558D01*
X3502050Y2530957D01*
X3499307Y2517952D01*
X3495243Y2492908D01*
X3484727Y2478582D01*
X3480562Y2470404D01*
X3474923Y2466086D01*
X3467049Y2456992D01*
X3456127Y2453182D01*
X3440887Y2449322D01*
X3423615Y2450287D01*
X3407511Y2454757D01*
X3401415Y2458212D01*
X3391814Y2468829D01*
X3387191Y2473045D01*
X3377844Y2489352D01*
X3374085Y2493822D01*
X3368801Y2507284D01*
X3366617Y2529332D01*
X3366566Y2536190D01*
X3343803Y2536190D01*
X3343656Y2534513D01*
X3346551Y2503474D01*
X3349091Y2491028D01*
X3353815Y2479497D01*
X3360013Y2468778D01*
X3366109Y2455722D01*
X3374542Y2446121D01*
X3386277Y2436723D01*
X3392373Y2429814D01*
X3400806Y2426462D01*
X3406851Y2425192D01*
X3413963Y2421178D01*
X3424326Y2418181D01*
X3438804Y2417114D01*
X3451707Y2420061D01*
X3463036Y2425242D01*
X3471316Y2427376D01*
X3480663Y2433472D01*
X3485896Y2439568D01*
X3496513Y2446985D01*
X3500069Y2452471D01*
X3504133Y2462885D01*
X3506622Y2464612D01*
X3514344Y2477719D01*
X3517137Y2483967D01*
X3520897Y2499156D01*
X3525062Y2513482D01*
X3526891Y2526893D01*
X3526891Y2543911D01*
X3525062Y2557322D01*
X3520846Y2571648D01*
X3516934Y2587701D01*
X3511804Y2598013D01*
X3502863Y2609596D01*
X3500170Y2617470D01*
X3495040Y2624785D01*
X3485896Y2631287D01*
X3480003Y2637993D01*
X3471316Y2643479D01*
X3463036Y2645714D01*
X3451098Y2650693D01*
G37*
G36*
X4275734Y2653487D02*
G01*
X4258513Y2653284D01*
X4255770Y2652420D01*
X4239158Y2646172D01*
X4228388Y2643632D01*
X4219803Y2638094D01*
X4213402Y2630373D01*
X4203852Y2624124D01*
X4198772Y2616911D01*
X4195267Y2607919D01*
X4192778Y2606192D01*
X4185056Y2593086D01*
X4182262Y2586837D01*
X4178554Y2571648D01*
X4174388Y2557322D01*
X4172508Y2543911D01*
X4172508Y2530957D01*
X4197350Y2530957D01*
X4197350Y2540558D01*
X4199483Y2548280D01*
X4204055Y2577338D01*
X4216908Y2595778D01*
X4218330Y2599842D01*
X4226052Y2606344D01*
X4231690Y2613812D01*
X4240530Y2616860D01*
X4254347Y2620568D01*
X4266539Y2622194D01*
X4276496Y2620264D01*
X4293768Y2615692D01*
X4299305Y2612339D01*
X4304131Y2606090D01*
X4312666Y2597251D01*
X4319270Y2585059D01*
X4324959Y2576118D01*
X4330598Y2563571D01*
X4332833Y2541524D01*
X4332833Y2529332D01*
X4330598Y2507234D01*
X4324959Y2494686D01*
X4319270Y2485745D01*
X4312666Y2473604D01*
X4304131Y2464714D01*
X4299305Y2458466D01*
X4293616Y2454859D01*
X4277207Y2450541D01*
X4266133Y2448661D01*
X4254347Y2450287D01*
X4239869Y2454097D01*
X4231233Y2457704D01*
X4227068Y2464562D01*
X4219752Y2469896D01*
X4214063Y2479497D01*
X4204157Y2492908D01*
X4200093Y2517952D01*
X4197350Y2530957D01*
X4172508Y2530957D01*
X4172508Y2526893D01*
X4174388Y2513482D01*
X4178554Y2499156D01*
X4182262Y2483967D01*
X4185462Y2476804D01*
X4193946Y2462936D01*
X4195267Y2462936D01*
X4199534Y2451760D01*
X4203903Y2445766D01*
X4212894Y2439873D01*
X4220616Y2431694D01*
X4228490Y2427173D01*
X4239158Y2424684D01*
X4256430Y2417826D01*
X4271670Y2417978D01*
X4285589Y2421636D01*
X4291025Y2424582D01*
X4303318Y2428138D01*
X4309872Y2431796D01*
X4313123Y2436266D01*
X4324299Y2445004D01*
X4334611Y2458008D01*
X4339336Y2470556D01*
X4345736Y2480614D01*
X4350105Y2490470D01*
X4352899Y2504490D01*
X4355846Y2534970D01*
X4353407Y2561793D01*
X4350766Y2577896D01*
X4346194Y2590444D01*
X4339336Y2602077D01*
X4332782Y2615844D01*
X4324197Y2625547D01*
X4313834Y2634132D01*
X4308805Y2639872D01*
X4301286Y2643479D01*
X4292396Y2645714D01*
X4287570Y2648813D01*
G37*
D10*
X2324100Y5627878D02*
G01*
X2398013Y5434076D01*
X2471927Y5627878D02*
G01*
X2398013Y5434076D01*
X2532888Y5507989D02*
G01*
X2643631Y5507989D01*
X2643631Y5526278D01*
X2634488Y5544820D01*
X2625090Y5553963D01*
X2606802Y5563362D01*
X2579115Y5563362D01*
X2560574Y5553963D01*
X2542031Y5535676D01*
X2532888Y5507989D01*
X2532888Y5489447D01*
X2542031Y5461762D01*
X2560574Y5443220D01*
X2579115Y5434076D01*
X2606802Y5434076D01*
X2625090Y5443220D01*
X2643631Y5461762D01*
X2704591Y5563362D02*
G01*
X2704591Y5434076D01*
X2704591Y5526278D02*
G01*
X2732277Y5553963D01*
X2750820Y5563362D01*
X2778506Y5563362D01*
X2797047Y5553963D01*
X2806191Y5526278D01*
X2806191Y5434076D01*
X2894838Y5627878D02*
G01*
X2894838Y5470905D01*
X2904236Y5443220D01*
X2922524Y5434076D01*
X2941065Y5434076D01*
X2867152Y5563362D02*
G01*
X2931922Y5563362D01*
X3002025Y5507989D02*
G01*
X3112770Y5507989D01*
X3112770Y5526278D01*
X3103625Y5544820D01*
X3094481Y5553963D01*
X3075940Y5563362D01*
X3048254Y5563362D01*
X3029711Y5553963D01*
X3011170Y5535676D01*
X3002025Y5507989D01*
X3002025Y5489447D01*
X3011170Y5461762D01*
X3029711Y5443220D01*
X3048254Y5434076D01*
X3075940Y5434076D01*
X3094481Y5443220D01*
X3112770Y5461762D01*
X3173729Y5563362D02*
G01*
X3173729Y5434076D01*
X3173729Y5526278D02*
G01*
X3201670Y5553963D01*
X3219958Y5563362D01*
X3247643Y5563362D01*
X3266186Y5553963D01*
X3275329Y5526278D01*
X3275329Y5434076D01*
X3447288Y5563362D02*
G01*
X3447288Y5415534D01*
X3437890Y5387847D01*
X3428745Y5378450D01*
X3410204Y5369305D01*
X3382518Y5369305D01*
X3364229Y5378450D01*
X3447288Y5535676D02*
G01*
X3428745Y5553963D01*
X3410204Y5563362D01*
X3382518Y5563362D01*
X3364229Y5553963D01*
X3345688Y5535676D01*
X3336290Y5507989D01*
X3336290Y5489447D01*
X3345688Y5461762D01*
X3364229Y5443220D01*
X3382518Y5434076D01*
X3410204Y5434076D01*
X3428745Y5443220D01*
X3447288Y5461762D01*
X3554475Y5563362D02*
G01*
X3535934Y5553963D01*
X3517391Y5535676D01*
X3508247Y5507989D01*
X3508247Y5489447D01*
X3517391Y5461762D01*
X3535934Y5443220D01*
X3554475Y5434076D01*
X3582161Y5434076D01*
X3600450Y5443220D01*
X3618991Y5461762D01*
X3628390Y5489447D01*
X3628390Y5507989D01*
X3618991Y5535676D01*
X3600450Y5553963D01*
X3582161Y5563362D01*
X3554475Y5563362D01*
D11*
X3810000Y3480815D02*
G01*
X3810000Y3371850D01*
X3810000Y3371850D02*
G01*
X3872229Y3371850D01*
X3906520Y3480815D02*
G01*
X3906520Y3371850D01*
X3906520Y3480815D02*
G01*
X3974084Y3480815D01*
X3906520Y3429000D02*
G01*
X3948175Y3429000D01*
X3906520Y3371850D02*
G01*
X3974084Y3371850D01*
X4008374Y3480815D02*
G01*
X4008374Y3371850D01*
X4008374Y3480815D02*
G01*
X4044950Y3480815D01*
X4060443Y3475736D01*
X4070858Y3465321D01*
X4075938Y3454907D01*
X4081272Y3439160D01*
X4081272Y3413252D01*
X4075938Y3397757D01*
X4070858Y3387344D01*
X4060443Y3376929D01*
X4044950Y3371850D01*
X4008374Y3371850D01*
X4125975Y3480815D02*
G01*
X4183125Y3480815D01*
X4151884Y3439160D01*
X4167377Y3439160D01*
X4177791Y3434079D01*
X4183125Y3429000D01*
X4188206Y3413252D01*
X4188206Y3402837D01*
X4183125Y3387344D01*
X4172711Y3376929D01*
X4156963Y3371850D01*
X4141470Y3371850D01*
X4125975Y3376929D01*
X4120641Y3382010D01*
X4115561Y3392423D01*
X4876800Y2922015D02*
G01*
X4876800Y2844037D01*
X4881879Y2828544D01*
X4892293Y2818129D01*
X4908041Y2813050D01*
X4918456Y2813050D01*
X4933950Y2818129D01*
X4944363Y2828544D01*
X4949443Y2844037D01*
X4949443Y2922015D01*
X4989068Y2896107D02*
G01*
X4989068Y2901187D01*
X4994147Y2911602D01*
X4999481Y2916936D01*
X5009895Y2922015D01*
X5030470Y2922015D01*
X5040884Y2916936D01*
X5046218Y2911602D01*
X5051297Y2901187D01*
X5051297Y2890773D01*
X5046218Y2880360D01*
X5035804Y2864865D01*
X4983734Y2813050D01*
X5056631Y2813050D01*
X1405300Y2731515D02*
G01*
X1405300Y2622550D01*
X1405300Y2622550D02*
G01*
X1467530Y2622550D01*
X1501820Y2731515D02*
G01*
X1501820Y2622550D01*
X1501820Y2731515D02*
G01*
X1569384Y2731515D01*
X1501820Y2679700D02*
G01*
X1543476Y2679700D01*
X1501820Y2622550D02*
G01*
X1569384Y2622550D01*
X1603674Y2731515D02*
G01*
X1603674Y2622550D01*
X1603674Y2731515D02*
G01*
X1640250Y2731515D01*
X1655744Y2726436D01*
X1666158Y2716021D01*
X1671238Y2705607D01*
X1676572Y2689860D01*
X1676572Y2663952D01*
X1671238Y2648457D01*
X1666158Y2638044D01*
X1655744Y2627629D01*
X1640250Y2622550D01*
X1603674Y2622550D01*
X1710862Y2710687D02*
G01*
X1721276Y2716021D01*
X1736770Y2731515D01*
X1736770Y2622550D01*
X2167300Y2731515D02*
G01*
X2167300Y2622550D01*
X2167300Y2622550D02*
G01*
X2229530Y2622550D01*
X2263820Y2731515D02*
G01*
X2263820Y2622550D01*
X2263820Y2731515D02*
G01*
X2331384Y2731515D01*
X2263820Y2679700D02*
G01*
X2305476Y2679700D01*
X2263820Y2622550D02*
G01*
X2331384Y2622550D01*
X2365674Y2731515D02*
G01*
X2365674Y2622550D01*
X2365674Y2731515D02*
G01*
X2402250Y2731515D01*
X2417744Y2726436D01*
X2428158Y2716021D01*
X2433238Y2705607D01*
X2438572Y2689860D01*
X2438572Y2663952D01*
X2433238Y2648457D01*
X2428158Y2638044D01*
X2417744Y2627629D01*
X2402250Y2622550D01*
X2365674Y2622550D01*
X2477942Y2705607D02*
G01*
X2477942Y2710687D01*
X2483276Y2721102D01*
X2488356Y2726436D01*
X2498770Y2731515D01*
X2519598Y2731515D01*
X2530012Y2726436D01*
X2535092Y2721102D01*
X2540426Y2710687D01*
X2540426Y2700273D01*
X2535092Y2689860D01*
X2524678Y2674365D01*
X2472862Y2622550D01*
X2545506Y2622550D01*
X3644900Y4954015D02*
G01*
X3644900Y4845050D01*
X3644900Y4954015D02*
G01*
X3691636Y4954015D01*
X3707129Y4948936D01*
X3712463Y4943602D01*
X3717543Y4933187D01*
X3717543Y4922773D01*
X3712463Y4912360D01*
X3707129Y4907279D01*
X3691636Y4902200D01*
X3644900Y4902200D01*
X3681222Y4902200D02*
G01*
X3717543Y4845050D01*
X3751834Y4933187D02*
G01*
X3762247Y4938521D01*
X3777995Y4954015D01*
X3777995Y4845050D01*
X3708400Y3976115D02*
G01*
X3708400Y3867150D01*
X3708400Y3976115D02*
G01*
X3755136Y3976115D01*
X3770629Y3971036D01*
X3775963Y3965702D01*
X3781043Y3955287D01*
X3781043Y3944873D01*
X3775963Y3934460D01*
X3770629Y3929379D01*
X3755136Y3924300D01*
X3708400Y3924300D01*
X3744722Y3924300D02*
G01*
X3781043Y3867150D01*
X3820668Y3950207D02*
G01*
X3820668Y3955287D01*
X3825747Y3965702D01*
X3831081Y3971036D01*
X3841495Y3976115D01*
X3862070Y3976115D01*
X3872484Y3971036D01*
X3877818Y3965702D01*
X3882897Y3955287D01*
X3882897Y3944873D01*
X3877818Y3934460D01*
X3867404Y3918965D01*
X3815334Y3867150D01*
X3888231Y3867150D01*
X3087115Y3949700D02*
G01*
X3009138Y3949700D01*
X2993643Y3944620D01*
X2983229Y3934205D01*
X2978150Y3918457D01*
X2978150Y3908044D01*
X2983229Y3892550D01*
X2993643Y3882136D01*
X3009138Y3877055D01*
X3087115Y3877055D01*
X3066288Y3842765D02*
G01*
X3071622Y3832352D01*
X3087115Y3816604D01*
X2978150Y3816604D01*
G36*
X2079396Y3184702D02*
G01*
X2079396Y3154680D01*
X2289403Y3154680D01*
X2289403Y3184702D01*
G37*
G36*
X2169414Y3274720D02*
G01*
X2169414Y3064713D01*
X2199386Y3064713D01*
X2199386Y3274720D01*
G37*
D12*
X3708400Y2968752D02*
G01*
X3963187Y2968218D01*
X5120640Y2593339D02*
G01*
X5120640Y2512060D01*
X4942840Y2334260D02*
G01*
X4810759Y2334260D01*
X4632959Y2512060D02*
G01*
X4632959Y2593339D01*
X4810759Y2771139D02*
G01*
X4942840Y2771139D01*
X1300700Y2129500D02*
G01*
X1560700Y2129500D01*
X2062700Y2129500D02*
G01*
X2322700Y2129500D01*
X3070859Y4333239D02*
G01*
X3070859Y4785360D01*
X3070859Y4785360D02*
G01*
X4218940Y4785360D01*
X4218940Y4785360D02*
G01*
X4218940Y4333239D01*
X4218940Y4333239D02*
G01*
X3070859Y4333239D01*
X3134359Y3355339D02*
G01*
X3134359Y3807460D01*
X3134359Y3807460D02*
G01*
X4282440Y3807460D01*
X4282440Y3807460D02*
G01*
X4282440Y3355339D01*
X4282440Y3355339D02*
G01*
X3134359Y3355339D01*
X1722899Y5013698D02*
G01*
X1721802Y5013698D01*
X1494901Y4786797D01*
X1722899Y2884700D02*
G01*
X1722800Y2884700D01*
X1494800Y3112701D01*
X1722899Y2884700D02*
G01*
X1856285Y2884700D01*
X1722899Y5013698D02*
G01*
X1856285Y5013698D01*
X2924898Y4734697D02*
G01*
X2924797Y4734697D01*
X2644797Y5014696D01*
X2924898Y3164700D02*
G01*
X2923898Y3164700D01*
X2644899Y2885701D01*
X2644899Y2885701D02*
G01*
X2512514Y2885701D01*
X2644797Y5014696D02*
G01*
X2512514Y5014696D01*
X2924898Y3164700D02*
G01*
X2924898Y4734697D01*
G75*
G01*
X3961943Y2968752D02*
G03*
X3708451Y2968752I-126746J154710D01*
G75*
G01*
X5120640Y2512060D02*
G02*
X4942840Y2334260I-177800J0D01*
G75*
G01*
X4810760Y2334260D02*
G02*
X4632960Y2512060I0J177800D01*
G75*
G01*
X4632960Y2593340D02*
G02*
X4810760Y2771140I177800J0D01*
G75*
G01*
X4942840Y2771140D02*
G02*
X5120640Y2593340I0J-177800D01*
G75*
G01*
X1568877Y2132330D02*
G03*
X1292525Y2132330I-138176J220244D01*
G75*
G01*
X2330877Y2132330D02*
G03*
X2054525Y2132330I-138176J220244D01*
G75*
G01*
X1494902Y4786798D02*
G02*
X1494790Y3112770I-5470594J-836649D01*
M02*
